<svg width="81" height="66" viewBox="0 0 81 66" fill="none" xmlns="http://www.w3.org/2000/svg">
<path d="M79.5463 0.999989L79.5463 0.499985L79.0463 0.499985L46.8831 0.499982L46.3831 0.499982L46.3831 0.999986L46.3831 33.1631L46.3831 33.6631L46.8831 33.6631L61.9003 33.6631C61.8544 39.2409 61.0363 43.7981 59.4706 47.3565C57.9315 50.8546 54.4194 52.7584 48.6696 52.9058L48.0549 52.9216L48.1957 53.5202L50.8947 64.991L50.9854 65.3765L51.3814 65.3765C61.8323 65.3765 69.088 62.037 72.9571 55.2293C76.7675 48.6742 78.7952 38.9044 79.0962 25.982C79.2461 22.3831 79.3961 18.4099 79.546 14.0624L79.5463 14.0538L79.5463 14.0452L79.5463 13.996L79.5463 13.9467L79.5463 13.8483L79.5463 13.7497L79.5463 13.6511L79.5463 13.6018L79.5463 13.5525L79.5463 13.5031L79.5463 13.4538L79.5463 13.355L79.5463 13.2562L79.5463 13.1573L79.5463 13.0584L79.5463 12.9594L79.5463 12.8604L79.5463 12.7613L79.5463 12.6622L79.5463 12.563L79.5463 12.5382L79.5463 12.5134L79.5463 12.4637L79.5463 12.3644L79.5463 12.2651L79.5463 12.2154L79.5463 12.1656L79.5463 12.0662L79.5463 11.9666L79.5463 11.8671L79.5463 11.8172L79.5463 11.7674L79.5463 11.6677L79.5463 11.568L79.5463 11.4682L79.5463 11.4432L79.5463 11.4183L79.5463 11.3933L79.5463 11.3683L79.5463 11.3434L79.5463 11.3184L79.5463 11.2934L79.5463 11.2684L79.5463 11.2434L79.5463 11.2184L79.5463 11.1934L79.5463 11.1684L79.5463 11.1434L79.5463 11.1184L79.5463 11.0934L79.5463 11.0684L79.5463 11.0434L79.5463 11.0184L79.5463 10.9934L79.5463 10.9683L79.5463 10.9433L79.5463 10.9183L79.5463 10.8933L79.5463 10.8682L79.5463 10.8432L79.5463 10.8181L79.5463 10.7931L79.5463 10.768L79.5463 10.743L79.5463 10.7179L79.5463 10.6929L79.5463 10.6678L79.5463 10.6427L79.5463 10.6177L79.5463 10.5926L79.5463 10.5675L79.5463 10.5424L79.5463 10.5173L79.5463 10.4922L79.5463 10.4671L79.5463 10.4421L79.5463 10.417L79.5463 10.3918L79.5463 10.3667L79.5463 10.3416L79.5463 10.3165L79.5463 10.2914L79.5463 10.2663L79.5463 10.2412L79.5463 10.216L79.5463 10.1909L79.5463 10.1658L79.5463 10.1406L79.5463 10.1155L79.5463 10.0903L79.5463 10.0652L79.5463 10.04L79.5463 10.0149L79.5463 9.98973L79.5463 9.96457L79.5463 9.93941L79.5463 9.91424L79.5463 9.88906L79.5463 9.86389L79.5463 9.83871L79.5463 9.81353L79.5463 9.78835L79.5463 9.76316L79.5463 9.73796L79.5463 9.71277L79.5463 9.68757L79.5463 9.66237L79.5463 9.63716L79.5463 9.61195L79.5463 9.58674L79.5463 9.56152L79.5463 9.5363L79.5463 9.51108L79.5463 9.48585L79.5463 9.46062L79.5463 9.43539L79.5463 9.41015L79.5463 9.38491L79.5463 9.35967L79.5463 9.33442L79.5463 9.30917L79.5463 9.28392L79.5463 9.25866L79.5463 9.2334L79.5463 9.20813L79.5463 9.18287L79.5463 9.15759L79.5463 9.13232L79.5463 9.10704L79.5463 9.08176L79.5463 9.05647L79.5463 9.03119L79.5463 9.00589L79.5463 8.9806L79.5463 8.9553L79.5463 8.93L79.5463 8.90469L79.5463 8.87938L79.5463 8.85407L79.5463 8.82875L79.5463 8.80344L79.5463 8.77811L79.5463 8.75278L79.5463 8.72746L79.5463 8.70213L79.5463 8.67679L79.5463 8.65145L79.5463 8.6261L79.5463 8.60076L79.5463 8.57541L79.5463 8.55005L79.5463 8.5247L79.5463 8.49934L79.5463 8.47397L79.5463 8.4486L79.5463 8.42323L79.5463 8.39786L79.5463 8.37248L79.5463 8.3471L79.5463 8.32172L79.5463 8.29633L79.5463 8.27094L79.5463 8.24554L79.5463 8.22015L79.5463 8.19474L79.5463 8.16934L79.5463 8.14393L79.5463 8.11852L79.5463 8.0931L79.5463 8.06768L79.5463 8.04226L79.5463 8.01683L79.5463 7.99141L79.5463 7.96597L79.5463 7.94054L79.5463 7.9151L79.5463 7.88966L79.5463 7.86421L79.5463 7.83876L79.5463 7.8133L79.5463 7.78785L79.5463 7.76239L79.5463 7.73693L79.5463 7.68599L79.5463 7.63504L79.5463 7.5331L79.5463 7.5076L79.5463 7.4821L79.5463 7.4311L79.5463 7.38008L79.5463 7.32904L79.5463 7.22694L79.5463 7.17586L79.5463 7.12477L79.5463 7.02256L79.5463 6.92028L79.5463 6.81796L79.5463 6.71558L79.5463 6.61314L79.5463 6.51065L79.5463 6.4081L79.5463 6.3055L79.5463 6.20284L79.5463 6.17717L79.5463 6.15149L79.5463 6.10013L79.5463 6.04875L79.5463 5.99736L79.5463 5.97166L79.5463 5.94596L79.5463 5.89454L79.5463 5.79166L79.5463 5.68873L79.5463 5.58575L79.5463 5.4827L79.5463 5.37961L79.5463 5.27646L79.5463 5.17325L79.5463 5.06999L79.5463 4.96667L79.5463 4.8633L79.5463 4.75988L79.5463 4.6564L79.5463 4.55286L79.5463 4.44927L79.5463 4.34563L79.5463 4.24193L79.5463 4.13817L79.5463 4.03436L79.5463 3.9305L79.5463 3.90452L79.5463 3.87854L79.5463 3.85256L79.5463 3.82658L79.5463 3.80059L79.5463 3.7746L79.5463 3.7486L79.5463 3.7226L79.5463 3.6966L79.5463 3.67059L79.5463 3.64458L79.5463 3.61857L79.5463 3.59256L79.5463 3.56654L79.5463 3.54052L79.5463 3.51449L79.5463 3.48846L79.5463 3.46243L79.5463 3.43639L79.5463 3.41035L79.5463 3.38431L79.5463 3.35826L79.5463 3.33221L79.5463 3.30616L79.5463 3.2801L79.5463 3.25404L79.5463 3.22797L79.5463 3.2019L79.5463 3.17583L79.5463 3.14976L79.5463 3.12368L79.5463 3.0976L79.5463 3.07152L79.5463 3.04543L79.5463 3.01934L79.5463 2.99324L79.5463 2.96714L79.5463 2.94104L79.5463 2.91494L79.5463 2.88883L79.5463 2.86272L79.5463 2.8366L79.5463 2.81048L79.5463 2.78436L79.5463 2.75824L79.5463 2.73211L79.5463 2.70597L79.5463 2.67984L79.5463 2.6537L79.5463 2.62755L79.5463 2.60141L79.5463 2.57526L79.5463 2.5491L79.5463 2.52295L79.5463 2.49679L79.5463 2.47062L79.5463 2.44446L79.5463 2.41829L79.5463 2.39211L79.5463 2.36594L79.5463 2.33976L79.5463 2.31357L79.5463 2.28738L79.5463 2.26119L79.5463 2.235L79.5463 2.2088L79.5463 2.1826L79.5463 2.1564L79.5463 2.13018L79.5463 2.10397L79.5463 2.07776L79.5463 2.05154L79.5463 2.02532L79.5463 1.99909L79.5463 1.97287L79.5463 1.94663L79.5463 1.9204L79.5463 1.89416L79.5463 1.86792L79.5463 1.84167L79.5463 1.81542L79.5463 1.78917L79.5463 1.76291L79.5463 1.73665L79.5463 1.71039L79.5463 1.68412L79.5463 1.65785L79.5463 1.63158L79.5463 1.6053L79.5463 1.57902L79.5463 1.55274L79.5463 1.52645L79.5463 1.50016L79.5463 1.47387L79.5463 1.44757L79.5463 1.42127L79.5463 1.39496L79.5463 1.36866L79.5463 1.34235L79.5463 1.31603L79.5463 1.28971L79.5463 1.26339L79.5463 1.23707L79.5463 1.21074L79.5463 1.18441L79.5463 1.15807L79.5463 1.13173L79.5463 1.10539L79.5463 1.07904L79.5463 1.0527L79.5463 1.02634L79.5463 0.999989ZM33.6632 0.999985L33.6632 0.499981L33.1632 0.499981L0.999983 0.499978L0.499983 0.499978L0.499983 0.999982L0.49998 33.1631L0.49998 33.6631L0.99998 33.6631L16.0172 33.6631C15.9713 39.2409 15.1532 43.7981 13.5875 47.3565C12.0484 50.8546 8.53629 52.7584 2.7865 52.9058L2.17176 52.9216L2.31261 53.5202L5.01162 64.991L5.10233 65.3765L5.49833 65.3765C15.9491 65.3765 23.2047 62.037 27.0739 55.2295C30.8843 48.6744 32.9121 38.9045 33.2131 25.9819C33.363 22.383 33.5129 18.4098 33.6629 14.0624L33.6632 14.0538L33.6632 14.0452L33.6632 14.0206L33.6632 13.996L33.6632 13.9714L33.6632 13.9467L33.6632 13.9221L33.6632 13.8975L33.6632 13.8729L33.6632 13.8483L33.6632 13.8236L33.6632 13.799L33.6632 13.7744L33.6632 13.7497L33.6632 13.7251L33.6632 13.7004L33.6632 13.6758L33.6632 13.6511L33.6632 13.6265L33.6632 13.6018L33.6632 13.5771L33.6632 13.5525L33.6632 13.5278L33.6632 13.5031L33.6632 13.4785L33.6632 13.4538L33.6632 13.4291L33.6632 13.4044L33.6632 13.3797L33.6632 13.355L33.6632 13.3303L33.6632 13.3056L33.6632 13.2809L33.6632 13.2562L33.6632 13.2315L33.6632 13.2068L33.6632 13.1821L33.6632 13.1573L33.6632 13.1326L33.6632 13.1079L33.6632 13.0831L33.6632 13.0584L33.6632 13.0337L33.6632 13.0089L33.6632 12.9842L33.6632 12.9594L33.6632 12.9347L33.6632 12.9099L33.6632 12.8852L33.6632 12.8604L33.6632 12.8356L33.6632 12.8109L33.6632 12.7861L33.6632 12.7613L33.6632 12.7365L33.6632 12.7117L33.6632 12.687L33.6632 12.6622L33.6632 12.6374L33.6632 12.6126L33.6632 12.5878L33.6632 12.563L33.6632 12.5382L33.6632 12.5134L33.6632 12.4885L33.6632 12.4637L33.6632 12.4389L33.6632 12.4141L33.6632 12.3892L33.6632 12.3644L33.6632 12.3396L33.6632 12.3147L33.6632 12.2899L33.6632 12.2651L33.6632 12.2402L33.6632 12.2154L33.6632 12.1905L33.6632 12.1656L33.6632 12.1408L33.6632 12.1159L33.6632 12.091L33.6632 12.0662L33.6632 12.0413L33.6632 12.0164L33.6632 11.9915L33.6632 11.9666L33.6632 11.9417L33.6632 11.9169L33.6632 11.892L33.6632 11.8671L33.6632 11.8422L33.6632 11.8172L33.6632 11.7923L33.6632 11.7674L33.6632 11.7425L33.6632 11.7176L33.6632 11.6927L33.6632 11.6677L33.6632 11.6428L33.6632 11.6179L33.6632 11.5929L33.6632 11.568L33.6632 11.543L33.6632 11.5181L33.6632 11.4931L33.6632 11.4682L33.6632 11.4432L33.6632 11.4183L33.6632 11.3933L33.6632 11.3683L33.6632 11.3433L33.6632 11.3184L33.6632 11.2934L33.6632 11.2684L33.6632 11.2434L33.6632 11.2184L33.6632 11.1934L33.6632 11.1684L33.6632 11.1434L33.6632 11.1184L33.6632 11.0934L33.6632 11.0684L33.6632 11.0434L33.6632 11.0184L33.6632 10.9934L33.6632 10.9683L33.6632 10.9433L33.6632 10.9183L33.6632 10.8933L33.6632 10.8682L33.6632 10.8432L33.6632 10.8181L33.6632 10.7931L33.6632 10.768L33.6632 10.743L33.6632 10.7179L33.6632 10.6929L33.6632 10.6678L33.6632 10.6427L33.6632 10.6176L33.6632 10.5926L33.6632 10.5675L33.6632 10.5424L33.6632 10.5173L33.6632 10.4922L33.6632 10.4671L33.6632 10.442L33.6632 10.4169L33.6632 10.3918L33.6632 10.3667L33.6632 10.3416L33.6632 10.3165L33.6632 10.2914L33.6632 10.2663L33.6632 10.2412L33.6632 10.216L33.6632 10.1909L33.6632 10.1658L33.6632 10.1406L33.6632 10.1155L33.6632 10.0903L33.6632 10.0652L33.6632 10.04L33.6632 10.0149L33.6632 9.98973L33.6632 9.96457L33.6632 9.9394L33.6632 9.91423L33.6632 9.88906L33.6632 9.86389L33.6632 9.83871L33.6632 9.81353L33.6632 9.78834L33.6632 9.76315L33.6632 9.73796L33.6632 9.71276L33.6632 9.68756L33.6632 9.66236L33.6632 9.63716L33.6632 9.61195L33.6632 9.58673L33.6632 9.56152L33.6632 9.5363L33.6632 9.51107L33.6632 9.48585L33.6632 9.46062L33.6632 9.43538L33.6632 9.41015L33.6632 9.38491L33.6632 9.35966L33.6632 9.33442L33.6632 9.30917L33.6632 9.28391L33.6632 9.25866L33.6632 9.23339L33.6632 9.20813L33.6632 9.18286L33.6632 9.15759L33.6632 9.13232L33.6632 9.10704L33.6632 9.08176L33.6632 9.05647L33.6632 9.03118L33.6632 9.00589L33.6632 8.98059L33.6632 8.9553L33.6632 8.92999L33.6632 8.90469L33.6632 8.87938L33.6632 8.85406L33.6632 8.82875L33.6632 8.80343L33.6632 8.77811L33.6632 8.75278L33.6632 8.72745L33.6632 8.70212L33.6632 8.67678L33.6632 8.65144L33.6632 8.6261L33.6632 8.60075L33.6632 8.5754L33.6632 8.55005L33.6632 8.52469L33.6632 8.49933L33.6632 8.47397L33.6632 8.4486L33.6632 8.42323L33.6632 8.39786L33.6632 8.37248L33.6632 8.3471L33.6632 8.32171L33.6632 8.29633L33.6632 8.27093L33.6632 8.24554L33.6632 8.22014L33.6632 8.19474L33.6632 8.16933L33.6632 8.14392L33.6632 8.11851L33.6632 8.0931L33.6632 8.06768L33.6632 8.04226L33.6632 8.01683L33.6632 7.9914L33.6632 7.96597L33.6632 7.94053L33.6632 7.91509L33.6632 7.88965L33.6632 7.8642L33.6632 7.83876L33.6632 7.8133L33.6632 7.78785L33.6632 7.76239L33.6632 7.73692L33.6632 7.71146L33.6632 7.68599L33.6632 7.66051L33.6632 7.63503L33.6632 7.60955L33.6632 7.58407L33.6632 7.55858L33.6632 7.53309L33.6632 7.50759L33.6632 7.4821L33.6632 7.4566L33.6632 7.43109L33.6632 7.40559L33.6632 7.38007L33.6632 7.35456L33.6632 7.32904L33.6632 7.30352L33.6632 7.27799L33.6632 7.25246L33.6632 7.22693L33.6632 7.2014L33.6632 7.17586L33.6632 7.15031L33.6632 7.12477L33.6632 7.09922L33.6632 7.07367L33.6632 7.04811L33.6632 7.02255L33.6632 6.99699L33.6632 6.97142L33.6632 6.94585L33.6632 6.92028L33.6632 6.8947L33.6632 6.86912L33.6632 6.84354L33.6632 6.81795L33.6632 6.79236L33.6632 6.76677L33.6632 6.74117L33.6632 6.71557L33.6632 6.68997L33.6632 6.66436L33.6632 6.63875L33.6632 6.61313L33.6632 6.58752L33.6632 6.56189L33.6632 6.53627L33.6632 6.51064L33.6632 6.48501L33.6632 6.45937L33.6632 6.43373L33.6632 6.40809L33.6632 6.38245L33.6632 6.3568L33.6632 6.33115L33.6632 6.30549L33.6632 6.27983L33.6632 6.25417L33.6632 6.2285L33.6632 6.20283L33.6632 6.17716L33.6632 6.15149L33.6632 6.12581L33.6632 6.10012L33.6632 6.07444L33.6632 6.04875L33.6632 6.02305L33.6632 5.99736L33.6632 5.97166L33.6632 5.94595L33.6632 5.92025L33.6632 5.89453L33.6632 5.86882L33.6632 5.84311L33.6632 5.81738L33.6632 5.79166L33.6632 5.76593L33.6632 5.7402L33.6632 5.71447L33.6632 5.68873L33.6632 5.66299L33.6632 5.63724L33.6632 5.61149L33.6632 5.58574L33.6632 5.55999L33.6632 5.53423L33.6632 5.50846L33.6632 5.4827L33.6632 5.45693L33.6632 5.43116L33.6632 5.40538L33.6632 5.3796L33.6632 5.35382L33.6632 5.32804L33.6632 5.30225L33.6632 5.27645L33.6632 5.25066L33.6632 5.22486L33.6632 5.19905L33.6632 5.17325L33.6632 5.14744L33.6632 5.12162L33.6632 5.09581L33.6632 5.06999L33.6632 5.04416L33.6632 5.01834L33.6632 4.9925L33.6632 4.96667L33.6632 4.94083L33.6632 4.91499L33.6632 4.88915L33.6632 4.8633L33.6632 4.83745L33.6632 4.8116L33.6632 4.78574L33.6632 4.75988L33.6632 4.73401L33.6632 4.70814L33.6632 4.68227L33.6632 4.65639L33.6632 4.63052L33.6632 4.60463L33.6632 4.57875L33.6632 4.55286L33.6632 4.52697L33.6632 4.50107L33.6632 4.47517L33.6632 4.44927L33.6632 4.42336L33.6632 4.39745L33.6632 4.37154L33.6632 4.34562L33.6632 4.3197L33.6632 4.29378L33.6632 4.26785L33.6632 4.24192L33.6632 4.21599L33.6632 4.19005L33.6632 4.16411L33.6632 4.13817L33.6632 4.11222L33.6632 4.08627L33.6632 4.06031L33.6632 4.03436L33.6632 4.0084L33.6632 3.98243L33.6632 3.95647L33.6632 3.93049L33.6632 3.90452L33.6632 3.87854L33.6632 3.85256L33.6632 3.82657L33.6632 3.80059L33.6632 3.77459L33.6632 3.7486L33.6632 3.7226L33.6632 3.6966L33.6632 3.67059L33.6632 3.64458L33.6632 3.61857L33.6632 3.59255L33.6632 3.56654L33.6632 3.54051L33.6632 3.51448L33.6632 3.48846L33.6632 3.46242L33.6632 3.43639L33.6632 3.41035L33.6632 3.3843L33.6632 3.35826L33.6632 3.33221L33.6632 3.30615L33.6632 3.28009L33.6632 3.25403L33.6632 3.22797L33.6632 3.2019L33.6632 3.17583L33.6632 3.14976L33.6632 3.12368L33.6632 3.0976L33.6632 3.07151L33.6632 3.04543L33.6632 3.01933L33.6632 2.99324L33.6632 2.96714L33.6632 2.94104L33.6632 2.91493L33.6632 2.88882L33.6632 2.86271L33.6632 2.8366L33.6632 2.81048L33.6632 2.78436L33.6632 2.75823L33.6632 2.7321L33.6632 2.70597L33.6632 2.67983L33.6632 2.65369L33.6632 2.62755L33.6632 2.6014L33.6632 2.57525L33.6632 2.5491L33.6632 2.52295L33.6632 2.49678L33.6632 2.47062L33.6632 2.44445L33.6632 2.41828L33.6632 2.39211L33.6632 2.36593L33.6632 2.33975L33.6632 2.31357L33.6632 2.28738L33.6632 2.26119L33.6632 2.23499L33.6632 2.2088L33.6632 2.18259L33.6632 2.15639L33.6632 2.13018L33.6632 2.10397L33.6632 2.07775L33.6632 2.05154L33.6632 2.02531L33.6632 1.99909L33.6632 1.97286L33.6632 1.94663L33.6632 1.92039L33.6632 1.89415L33.6632 1.86791L33.6632 1.84167L33.6632 1.81542L33.6632 1.78917L33.6632 1.76291L33.6632 1.73665L33.6632 1.71038L33.6632 1.68412L33.6632 1.65785L33.6632 1.63158L33.6632 1.6053L33.6632 1.57902L33.6632 1.55273L33.6632 1.52645L33.6632 1.50016L33.6632 1.47386L33.6632 1.44757L33.6632 1.42126L33.6632 1.39496L33.6632 1.36865L33.6632 1.34234L33.6632 1.31603L33.6632 1.28971L33.6632 1.26339L33.6632 1.23706L33.6632 1.21074L33.6632 1.1844L33.6632 1.15807L33.6632 1.13173L33.6632 1.10539L33.6632 1.07904L33.6632 1.05269L33.6632 1.02634L33.6632 0.999985Z" stroke="white" stroke-opacity="0.2"/>
</svg>
