<svg width="81" height="66" viewBox="0 0 81 66" fill="none" xmlns="http://www.w3.org/2000/svg">
<path d="M0.5 64.8765L0.5 65.3765H1H33.1632H33.6632V64.8765V32.7133V32.2133H33.1632H18.1459C18.1918 26.6356 19.0099 22.0783 20.5756 18.52C22.1148 15.0219 25.6269 13.118 31.3766 12.9706L31.9914 12.9549L31.8505 12.3563L29.1515 0.88548L29.0608 0.5H28.6648C18.2139 0.5 10.9583 3.83948 7.08913 10.6471C3.2788 17.2022 1.25103 26.972 0.950077 39.8944C0.800137 43.4933 0.650211 47.4665 0.500297 51.8141L0.5 51.8227V51.8313V51.8805V51.9297V52.0282V52.1267V52.2253V52.2747V52.324V52.3733V52.4227L0.5 52.5214V52.6203V52.7191V52.8181L0.5 52.917V53.0161V53.1151V53.2143V53.3135V53.3383V53.3631V53.4127V53.512V53.6114V53.6611V53.7108V53.8103V53.9098V54.0094V54.0592V54.109V54.2087L0.5 54.3085V54.4083V54.4332V54.4582V54.4832V54.5081V54.5331V54.5581V54.5831V54.6081V54.633V54.658V54.683V54.708L0.5 54.733V54.758V54.783V54.808V54.833V54.8581V54.8831V54.9081V54.9331V54.9582V54.9832V55.0082V55.0333V55.0583V55.0834V55.1084V55.1335V55.1585V55.1836V55.2087V55.2337V55.2588V55.2839V55.309V55.334V55.3591V55.3842V55.4093V55.4344V55.4595V55.4846V55.5097V55.5348V55.5599V55.5851V55.6102V55.6353V55.6604V55.6856V55.7107V55.7358V55.761V55.7861V55.8113V55.8364V55.8616V55.8867V55.9119V55.9371V55.9622V55.9874V56.0126V56.0378V56.0629L0.5 56.0881V56.1133V56.1385V56.1637V56.1889V56.2141V56.2393V56.2645V56.2897V56.3149V56.3402V56.3654V56.3906V56.4158V56.4411V56.4663V56.4916V56.5168L0.5 56.542V56.5673V56.5925V56.6178V56.6431V56.6683V56.6936V56.7189V56.7441V56.7694V56.7947V56.82V56.8453V56.8706V56.8959V56.9212V56.9465V56.9718V56.9971V57.0224V57.0477V57.073V57.0984V57.1237V57.149V57.1743V57.1997V57.225V57.2504V57.2757V57.3011V57.3264V57.3518V57.3771V57.4025V57.4279V57.4532V57.4786V57.504V57.5294V57.5547V57.5801V57.6055V57.6309V57.6563V57.6817V57.7071V57.7325V57.7579V57.7834V57.8088V57.8342V57.8596V57.8851L0.5 57.9105V57.9359V57.9614V57.9868V58.0123V58.0377V58.0632V58.0886V58.1141V58.1395V58.1905V58.2414L0.5 58.3434V58.3689V58.3944V58.4454V58.4964V58.5474V58.6495V58.7006V58.7517V58.8539V58.9562V59.0585V59.1609V59.2633V59.3658V59.4684V59.571V59.6736V59.6993L0.5 59.725V59.7763V59.8277V59.8791V59.9048V59.9305V59.9819V60.0848L0.5 60.1877V60.2907V60.3938V60.4969V60.6V60.7032V60.8065V60.9098V61.0132V61.1166V61.2201V61.3236V61.4272L0.5 61.5308V61.6345V61.7383V61.8421V61.946L0.5 61.9719V61.9979V62.0239V62.0499V62.0759V62.1019V62.1279V62.1539V62.1799V62.2059V62.2319V62.2579V62.2839V62.3099V62.3359V62.362V62.388V62.414V62.4401V62.4661V62.4922V62.5182V62.5443V62.5703V62.5964V62.6224V62.6485V62.6746V62.7006V62.7267V62.7528V62.7789V62.8049V62.831V62.8571V62.8832V62.9093V62.9354V62.9615V62.9876V63.0137V63.0399V63.066V63.0921V63.1182V63.1444V63.1705V63.1966V63.2228V63.2489V63.2751V63.3012L0.5 63.3274V63.3535V63.3797V63.4058V63.432V63.4582V63.4844V63.5105V63.5367V63.5629V63.5891V63.6153V63.6415V63.6677V63.6939V63.7201V63.7463V63.7725L0.5 63.7987V63.8249V63.8511V63.8774V63.9036V63.9298V63.9561V63.9823V64.0085V64.0348V64.061V64.0873V64.1136V64.1398V64.1661V64.1923V64.2186V64.2449V64.2712V64.2974V64.3237V64.35V64.3763V64.4026V64.4289V64.4552V64.4815V64.5078V64.5341V64.5604V64.5868V64.6131V64.6394V64.6657V64.6921V64.7184V64.7447V64.7711V64.7974V64.8238V64.8501V64.8765ZM46.3831 64.8765V65.3765H46.8831L79.0463 65.3765H79.5463V64.8765L79.5463 32.7133V32.2133H79.0463L64.029 32.2133C64.075 26.6356 64.8931 22.0783 66.4587 18.52C67.9979 15.0219 71.51 13.118 77.2598 12.9706L77.8745 12.9549L77.7337 12.3563L75.0346 0.88548L74.9439 0.5L74.5479 0.5C64.0971 0.5 56.8415 3.83942 52.9723 10.647C49.1619 17.2021 47.1341 26.972 46.8332 39.8946C46.6832 43.4934 46.5333 47.4666 46.3834 51.8141L46.3831 51.8227V51.8313V51.8559V51.8805V51.9051V51.9297V51.9543V51.979V52.0036V52.0282V52.0528V52.0775V52.1021V52.1267V52.1514V52.176V52.2007V52.2253V52.25V52.2747V52.2993V52.324V52.3487V52.3733V52.398V52.4227V52.4474V52.4721V52.4967V52.5214V52.5461V52.5708V52.5956V52.6203V52.645V52.6697V52.6944V52.7191V52.7439V52.7686V52.7933V52.8181V52.8428V52.8675V52.8923V52.917V52.9418V52.9665V52.9913V53.0161V53.0408V53.0656V53.0904V53.1151V53.1399V53.1647V53.1895V53.2143V53.2391V53.2639V53.2887V53.3135V53.3383V53.3631V53.3879V53.4127V53.4376V53.4624V53.4872V53.512V53.5369V53.5617V53.5866V53.6114V53.6363V53.6611V53.686V53.7108V53.7357V53.7606V53.7854V53.8103V53.8352V53.8601V53.8849V53.9098V53.9347V53.9596V53.9845V54.0094V54.0343V54.0592V54.0841V54.109V54.134V54.1589V54.1838V54.2087V54.2337V54.2586V54.2835V54.3085V54.3334V54.3584V54.3833V54.4083V54.4332V54.4582V54.4832V54.5081V54.5331V54.5581V54.5831V54.6081V54.633V54.658V54.683V54.708V54.733V54.758V54.783V54.808V54.833V54.8581V54.8831V54.9081V54.9331V54.9582V54.9832V55.0082V55.0333V55.0583V55.0834V55.1084V55.1335V55.1585V55.1836V55.2087V55.2337V55.2588V55.2839V55.309V55.334V55.3591V55.3842V55.4093V55.4344V55.4595V55.4846V55.5097V55.5348V55.5599V55.5851V55.6102V55.6353V55.6604V55.6856V55.7107V55.7358V55.761V55.7861V55.8113V55.8364V55.8616V55.8867V55.9119V55.9371V55.9622V55.9874V56.0126V56.0378V56.0629V56.0881V56.1133V56.1385V56.1637V56.1889V56.2141V56.2393V56.2645V56.2897V56.3149V56.3402V56.3654V56.3906V56.4158V56.4411V56.4663V56.4916V56.5168V56.542V56.5673V56.5925V56.6178V56.6431V56.6683V56.6936V56.7189V56.7441V56.7694V56.7947V56.82V56.8453V56.8706V56.8959V56.9212V56.9465V56.9718V56.9971V57.0224V57.0477V57.073V57.0984V57.1237V57.149V57.1743V57.1997V57.225V57.2504V57.2757V57.3011V57.3264V57.3518V57.3771V57.4025V57.4279V57.4532V57.4786V57.504V57.5294V57.5547V57.5801V57.6055V57.6309V57.6563V57.6817V57.7071V57.7325V57.7579V57.7834V57.8088V57.8342V57.8596V57.8851V57.9105V57.9359V57.9614V57.9868V58.0123V58.0377V58.0632V58.0886V58.1141V58.1395V58.165V58.1905V58.216V58.2414V58.2669V58.2924V58.3179V58.3434V58.3689V58.3944V58.4199V58.4454V58.4709V58.4964V58.5219V58.5474V58.5729V58.5985V58.624V58.6495V58.6751V58.7006V58.7261V58.7517V58.7772V58.8028V58.8284V58.8539V58.8795V58.905V58.9306V58.9562V58.9818V59.0073V59.0329V59.0585V59.0841V59.1097V59.1353V59.1609V59.1865V59.2121V59.2377V59.2633V59.2889V59.3146V59.3402V59.3658V59.3915V59.4171V59.4427V59.4684V59.494V59.5197V59.5453V59.571V59.5966V59.6223V59.648V59.6736V59.6993V59.725V59.7507V59.7763V59.802V59.8277V59.8534V59.8791V59.9048V59.9305V59.9562V59.9819V60.0076V60.0334V60.0591V60.0848V60.1105V60.1363V60.162V60.1877V60.2135V60.2392V60.265V60.2907V60.3165V60.3422V60.368V60.3938V60.4195V60.4453V60.4711V60.4969V60.5226V60.5484V60.5742V60.6V60.6258V60.6516V60.6774V60.7032V60.729V60.7548V60.7807V60.8065V60.8323V60.8581V60.884V60.9098V60.9356V60.9615V60.9873V61.0132V61.039V61.0649V61.0907V61.1166V61.1425V61.1683V61.1942V61.2201V61.2459V61.2718V61.2977V61.3236V61.3495V61.3754V61.4013V61.4272V61.4531V61.479V61.5049V61.5308V61.5568V61.5827V61.6086V61.6345V61.6605V61.6864V61.7123V61.7383V61.7642V61.7902V61.8161V61.8421V61.8681V61.894V61.92V61.946V61.9719V61.9979V62.0239V62.0499V62.0759V62.1019V62.1279V62.1539V62.1799V62.2059V62.2319V62.2579V62.2839V62.3099V62.3359V62.362V62.388V62.414V62.4401V62.4661V62.4922V62.5182V62.5443V62.5703V62.5964V62.6224V62.6485V62.6746V62.7006V62.7267V62.7528V62.7789V62.8049V62.831V62.8571V62.8832V62.9093V62.9354V62.9615V62.9876V63.0137V63.0399V63.066V63.0921V63.1182V63.1444V63.1705V63.1966V63.2228V63.2489V63.2751V63.3012V63.3274V63.3535V63.3797V63.4058V63.432V63.4582V63.4844V63.5105V63.5367V63.5629V63.5891V63.6153V63.6415V63.6677V63.6939V63.7201V63.7463V63.7725V63.7987V63.8249V63.8511V63.8774V63.9036V63.9298V63.9561V63.9823V64.0085V64.0348V64.061V64.0873V64.1136V64.1398V64.1661V64.1923V64.2186V64.2449V64.2712V64.2974V64.3237V64.35V64.3763V64.4026V64.4289V64.4552V64.4815V64.5078V64.5341V64.5604V64.5868V64.6131V64.6394V64.6657V64.6921V64.7184V64.7447V64.7711V64.7974V64.8238V64.8501V64.8765Z" stroke="white" stroke-opacity="0.2"/>
</svg>
